<svg width="18" height="18" viewBox="0 0 18 18" fill="none" xmlns="http://www.w3.org/2000/svg">
<path d="M0.687019 0.819254C0.579053 0.927195 0.513408 1.0703 0.502021 1.22254C0.490634 1.37479 0.53426 1.52606 0.624968 1.64886L0.687019 1.72027L4.11595 5.15006C2.44478 6.32267 1.25146 8.05759 0.754169 10.0376C0.715901 10.2007 0.743322 10.3722 0.830505 10.5152C0.917687 10.6582 1.05763 10.7611 1.22009 10.8018C1.38255 10.8424 1.55448 10.8175 1.69872 10.7324C1.84296 10.6473 1.94792 10.5089 1.99093 10.347C2.43277 8.58956 3.5189 7.0623 5.03396 6.06807L6.57248 7.60659C5.95792 8.24877 5.61927 9.10608 5.62908 9.99489C5.63888 10.8837 5.99635 11.7333 6.62493 12.3618C7.2535 12.9903 8.1032 13.3476 8.99201 13.3572C9.88082 13.3669 10.7381 13.0281 11.3801 12.4134L16.4113 17.4455C16.5251 17.5595 16.6778 17.6263 16.8388 17.6324C16.9998 17.6384 17.1571 17.5833 17.2791 17.4781C17.4011 17.3729 17.4787 17.2254 17.4964 17.0653C17.5141 16.9052 17.4705 16.7443 17.3744 16.615L17.3123 16.5436L12.1162 11.3466L12.1171 11.3449L6.20953 5.44076L6.21123 5.43906L5.24817 4.47855L1.58803 0.819254C1.4685 0.69987 1.30646 0.632812 1.13752 0.632812C0.968584 0.632812 0.806551 0.69987 0.687019 0.819254ZM9.0001 3.60729C8.1501 3.60729 7.32559 3.73309 6.54443 3.96855L7.59589 5.01916C9.41453 4.65906 11.302 5.01158 12.8681 6.00384C14.4341 6.99609 15.559 8.5522 16.0101 10.3504C16.0542 10.511 16.1593 10.648 16.303 10.7321C16.4468 10.8162 16.6177 10.8407 16.7793 10.8004C16.9408 10.7601 17.0802 10.6581 17.1676 10.5164C17.255 10.3746 17.2834 10.2043 17.2469 10.0419C16.7864 8.20347 15.7246 6.57171 14.2305 5.40586C12.7363 4.24001 10.8953 3.60696 9.0001 3.60729ZM9.16586 6.59083L12.3967 9.82087C12.3549 8.97758 12.0011 8.17994 11.404 7.58298C10.8069 6.98603 10.0092 6.6324 9.16586 6.59083Z" fill="#888888"/>
</svg>
